<svg xmlns="http://www.w3.org/2000/svg" xmlns:xlink="http://www.w3.org/1999/xlink" contentStyleType="text/css" data-diagram-type="SEQUENCE" height="1095px" preserveAspectRatio="none" style="width:1324px;height:1095px;background:#FFFFFF;" version="1.1" viewBox="0 0 1324 1095" width="1324px" zoomAndPan="magnify"><title>sqd : Ersatzteil-Verfuegbarkeit pruefen + Ersatzteil reservieren</title><defs/><g><text fill="#000000" font-family="sans-serif" font-size="14" font-weight="bold" lengthAdjust="spacing" textLength="502.8447" x="412.2429" y="27.9951">sqd : Ersatzteil-Verfuegbarkeit pruefen + Ersatzteil reservieren</text><g><title>. Reparaturauftrag</title><rect fill="#FFFFFF" height="29.1328" style="stroke:#181818;stroke-width:1;" width="10" x="435.6196" y="149.7266"/></g><g><title>eigene . Filiale</title><rect fill="#FFFFFF" height="87.3984" style="stroke:#181818;stroke-width:1;" width="10" x="575.834" y="232.125"/></g><g><title>andere . Filiale</title><rect fill="#FFFFFF" height="87.3984" style="stroke:#181818;stroke-width:1;" width="10" x="1023.4404" y="606.6563"/></g><g><title>. ErsatzteilReservierung</title><rect fill="#FFFFFF" height="165.7969" style="stroke:#181818;stroke-width:1;" width="10" x="1183.0825" y="372.7891"/></g><g><title>. ErsatzteilReservierung</title><rect fill="#FFFFFF" height="100.3984" style="stroke:#181818;stroke-width:1;" width="10" x="1183.0825" y="754.3203"/></g><rect fill="none" height="774.9297" style="stroke:#000000;stroke-width:1.5;" width="1308.3306" x="10" y="193.8594"/><rect fill="none" height="627.2656" style="stroke:#000000;stroke-width:1.5;" width="1288.3306" x="20" y="334.5234"/><rect fill="none" height="133.6641" style="stroke:#000000;stroke-width:1.5;" width="1067.3115" x="30" y="568.3906"/><rect fill="none" height="238.7344" style="stroke:#000000;stroke-width:1.5;" width="1268.3306" x="30" y="716.0547"/><g><title>Disponent</title><rect fill="#000000" fill-opacity="0.00000" height="896.3281" width="8" x="74.6323" y="118.5938"/><line style="stroke:#181818;stroke-width:0.5;stroke-dasharray:5,5;" x1="78" x2="78" y1="118.5938" y2="1014.9219"/></g><g><title>. Reparaturauftrag</title><rect fill="#000000" fill-opacity="0.00000" height="896.3281" width="8" x="436.6196" y="118.5938"/><line style="stroke:#181818;stroke-width:0.5;stroke-dasharray:5,5;" x1="440.3604" x2="440.3604" y1="118.5938" y2="1014.9219"/></g><g><title>eigene . Filiale</title><rect fill="#000000" fill-opacity="0.00000" height="896.3281" width="8" x="576.834" y="118.5938"/><line style="stroke:#181818;stroke-width:0.5;stroke-dasharray:5,5;" x1="579.8789" x2="579.8789" y1="118.5938" y2="1014.9219"/></g><g><title>. Lagerbestand</title><rect fill="#000000" fill-opacity="0.00000" height="896.3281" width="8" x="800.6372" y="118.5938"/><line style="stroke:#181818;stroke-width:0.5;stroke-dasharray:5,5;" x1="803.9253" x2="803.9253" y1="118.5938" y2="1014.9219"/></g><g><title>andere . Filiale</title><rect fill="#000000" fill-opacity="0.00000" height="896.3281" width="8" x="1024.4404" y="118.5938"/><line style="stroke:#181818;stroke-width:0.5;stroke-dasharray:5,5;" x1="1027.5693" x2="1027.5693" y1="118.5938" y2="1014.9219"/></g><g><title>. ErsatzteilReservierung</title><rect fill="#000000" fill-opacity="0.00000" height="896.3281" width="8" x="1184.0825" y="118.5938"/><line style="stroke:#181818;stroke-width:0.5;stroke-dasharray:5,5;" x1="1187.3115" x2="1187.3115" y1="118.5938" y2="1014.9219"/></g><g class="participant participant-head" data-participant="Disponent"><text fill="#000000" font-family="sans-serif" font-size="14" lengthAdjust="spacing" textLength="71.2646" x="40" y="115.292">Disponent</text><ellipse cx="78.6323" cy="50.7969" fill="#E2E2F0" rx="8" ry="8" style="stroke:#181818;stroke-width:0.5;"/><path d="M78.6323,58.7969 L78.6323,85.7969 M65.6323,66.7969 L91.6323,66.7969 M78.6323,85.7969 L65.6323,100.7969 M78.6323,85.7969 L91.6323,100.7969" fill="none" style="stroke:#181818;stroke-width:0.5;"/></g><g class="participant participant-tail" data-participant="Disponent"><text fill="#000000" font-family="sans-serif" font-size="14" lengthAdjust="spacing" textLength="71.2646" x="40" y="1026.917">Disponent</text><ellipse cx="78.6323" cy="1038.7188" fill="#E2E2F0" rx="8" ry="8" style="stroke:#181818;stroke-width:0.5;"/><path d="M78.6323,1046.7188 L78.6323,1073.7188 M65.6323,1054.7188 L91.6323,1054.7188 M78.6323,1073.7188 L65.6323,1088.7188 M78.6323,1073.7188 L91.6323,1088.7188" fill="none" style="stroke:#181818;stroke-width:0.5;"/></g><g class="participant participant-head" data-participant="RA"><rect fill="#E2E2F0" height="30.2969" rx="2.5" ry="2.5" style="stroke:#181818;stroke-width:0.5;" width="144.5186" x="368.3604" y="87.2969"/><text fill="#000000" font-family="sans-serif" font-size="14" lengthAdjust="spacing" textLength="130.5186" x="375.3604" y="107.292">: Reparaturauftrag</text></g><g class="participant participant-tail" data-participant="RA"><rect fill="#E2E2F0" height="30.2969" rx="2.5" ry="2.5" style="stroke:#181818;stroke-width:0.5;" width="144.5186" x="368.3604" y="1013.9219"/><text fill="#000000" font-family="sans-serif" font-size="14" lengthAdjust="spacing" textLength="130.5186" x="375.3604" y="1033.917">: Reparaturauftrag</text></g><g class="participant participant-head" data-participant="F1"><rect fill="#E2E2F0" height="30.2969" rx="2.5" ry="2.5" style="stroke:#181818;stroke-width:0.5;" width="115.9102" x="522.8789" y="87.2969"/><text fill="#000000" font-family="sans-serif" font-size="14" lengthAdjust="spacing" textLength="101.9102" x="529.8789" y="107.292">eigene : Filiale</text></g><g class="participant participant-tail" data-participant="F1"><rect fill="#E2E2F0" height="30.2969" rx="2.5" ry="2.5" style="stroke:#181818;stroke-width:0.5;" width="115.9102" x="522.8789" y="1013.9219"/><text fill="#000000" font-family="sans-serif" font-size="14" lengthAdjust="spacing" textLength="101.9102" x="529.8789" y="1033.917">eigene : Filiale</text></g><g class="participant participant-head" data-participant="LB"><rect fill="#E2E2F0" height="30.2969" rx="2.5" ry="2.5" style="stroke:#181818;stroke-width:0.5;" width="119.4238" x="744.9253" y="87.2969"/><text fill="#000000" font-family="sans-serif" font-size="14" lengthAdjust="spacing" textLength="105.4238" x="751.9253" y="107.292">: Lagerbestand</text></g><g class="participant participant-tail" data-participant="LB"><rect fill="#E2E2F0" height="30.2969" rx="2.5" ry="2.5" style="stroke:#181818;stroke-width:0.5;" width="119.4238" x="744.9253" y="1013.9219"/><text fill="#000000" font-family="sans-serif" font-size="14" lengthAdjust="spacing" textLength="105.4238" x="751.9253" y="1033.917">: Lagerbestand</text></g><g class="participant participant-head" data-participant="F2"><rect fill="#E2E2F0" height="30.2969" rx="2.5" ry="2.5" style="stroke:#181818;stroke-width:0.5;" width="117.7422" x="969.5693" y="87.2969"/><text fill="#000000" font-family="sans-serif" font-size="14" lengthAdjust="spacing" textLength="103.7422" x="976.5693" y="107.292">andere : Filiale</text></g><g class="participant participant-tail" data-participant="F2"><rect fill="#E2E2F0" height="30.2969" rx="2.5" ry="2.5" style="stroke:#181818;stroke-width:0.5;" width="117.7422" x="969.5693" y="1013.9219"/><text fill="#000000" font-family="sans-serif" font-size="14" lengthAdjust="spacing" textLength="103.7422" x="976.5693" y="1033.917">andere : Filiale</text></g><g class="participant participant-head" data-participant="Res"><rect fill="#E2E2F0" height="30.2969" rx="2.5" ry="2.5" style="stroke:#181818;stroke-width:0.5;" width="181.542" x="1097.3115" y="87.2969"/><text fill="#000000" font-family="sans-serif" font-size="14" lengthAdjust="spacing" textLength="167.542" x="1104.3115" y="107.292">: ErsatzteilReservierung</text></g><g class="participant participant-tail" data-participant="Res"><rect fill="#E2E2F0" height="30.2969" rx="2.5" ry="2.5" style="stroke:#181818;stroke-width:0.5;" width="181.542" x="1097.3115" y="1013.9219"/><text fill="#000000" font-family="sans-serif" font-size="14" lengthAdjust="spacing" textLength="167.542" x="1104.3115" y="1033.917">: ErsatzteilReservierung</text></g><g><title>. Reparaturauftrag</title><rect fill="#FFFFFF" height="29.1328" style="stroke:#181818;stroke-width:1;" width="10" x="435.6196" y="149.7266"/></g><g><title>eigene . Filiale</title><rect fill="#FFFFFF" height="87.3984" style="stroke:#181818;stroke-width:1;" width="10" x="575.834" y="232.125"/></g><g><title>andere . Filiale</title><rect fill="#FFFFFF" height="87.3984" style="stroke:#181818;stroke-width:1;" width="10" x="1023.4404" y="606.6563"/></g><g><title>. ErsatzteilReservierung</title><rect fill="#FFFFFF" height="165.7969" style="stroke:#181818;stroke-width:1;" width="10" x="1183.0825" y="372.7891"/></g><g><title>. ErsatzteilReservierung</title><rect fill="#FFFFFF" height="100.3984" style="stroke:#181818;stroke-width:1;" width="10" x="1183.0825" y="754.3203"/></g><g class="message" data-participant-1="Disponent" data-participant-2="RA"><polygon fill="#181818" points="423.6196,145.7266,433.6196,149.7266,423.6196,153.7266,427.6196,149.7266" style="stroke:#181818;stroke-width:1;"/><line style="stroke:#181818;stroke-width:1;" x1="78.6323" x2="429.6196" y1="149.7266" y2="149.7266"/><text fill="#000000" font-family="sans-serif" font-size="13" lengthAdjust="spacing" textLength="135.1162" x="85.6323" y="144.6606">ermittleTeilebedarf()</text></g><g class="message" data-participant-1="RA" data-participant-2="Disponent"><polygon fill="#181818" points="89.6323,174.8594,79.6323,178.8594,89.6323,182.8594,85.6323,178.8594" style="stroke:#181818;stroke-width:1;"/><line style="stroke:#181818;stroke-width:1;stroke-dasharray:2,2;" x1="83.6323" x2="439.6196" y1="178.8594" y2="178.8594"/><text fill="#000000" font-family="sans-serif" font-size="13" lengthAdjust="spacing" textLength="105.0474" x="95.6323" y="173.7935">List&lt;Ersatzteil&gt;</text></g><path d="M10,193.8594 L86.624,193.8594 L86.624,200.9922 L76.624,210.9922 L10,210.9922 L10,193.8594" fill="#EEEEEE" style="stroke:#000000;stroke-width:1.5;"/><rect fill="none" height="774.9297" style="stroke:#000000;stroke-width:1.5;" width="1308.3306" x="10" y="193.8594"/><text fill="#000000" font-family="sans-serif" font-size="13" font-weight="bold" lengthAdjust="spacing" textLength="31.624" x="25" y="206.9263">loop</text><text fill="#000000" font-family="sans-serif" font-size="11" font-weight="bold" lengthAdjust="spacing" textLength="162.1265" x="101.624" y="206.0698">[je benoetigtes Ersatzteil]</text><g class="message" data-participant-1="Disponent" data-participant-2="F1"><polygon fill="#181818" points="563.834,228.125,573.834,232.125,563.834,236.125,567.834,232.125" style="stroke:#181818;stroke-width:1;"/><line style="stroke:#181818;stroke-width:1;" x1="78.6323" x2="569.834" y1="232.125" y2="232.125"/><text fill="#000000" font-family="sans-serif" font-size="13" lengthAdjust="spacing" textLength="166.1182" x="85.6323" y="227.0591">pruefeBestand(ersatzteil)</text></g><g class="message" data-participant-1="F1" data-participant-2="LB"><polygon fill="#181818" points="792.6372,257.2578,802.6372,261.2578,792.6372,265.2578,796.6372,261.2578" style="stroke:#181818;stroke-width:1;"/><line style="stroke:#181818;stroke-width:1;" x1="585.834" x2="798.6372" y1="261.2578" y2="261.2578"/><text fill="#000000" font-family="sans-serif" font-size="13" lengthAdjust="spacing" textLength="194.8032" x="592.834" y="256.1919">pruefeVerfuegbarkeit(menge)</text></g><g class="message" data-participant-1="LB" data-participant-2="F1"><polygon fill="#181818" points="596.834,286.3906,586.834,290.3906,596.834,294.3906,592.834,290.3906" style="stroke:#181818;stroke-width:1;"/><line style="stroke:#181818;stroke-width:1;stroke-dasharray:2,2;" x1="590.834" x2="803.6372" y1="290.3906" y2="290.3906"/><text fill="#000000" font-family="sans-serif" font-size="13" lengthAdjust="spacing" textLength="71.665" x="602.834" y="285.3247">verfuegbar</text></g><g class="message" data-participant-1="F1" data-participant-2="Disponent"><polygon fill="#181818" points="89.6323,315.5234,79.6323,319.5234,89.6323,323.5234,85.6323,319.5234" style="stroke:#181818;stroke-width:1;"/><line style="stroke:#181818;stroke-width:1;stroke-dasharray:2,2;" x1="83.6323" x2="579.834" y1="319.5234" y2="319.5234"/><text fill="#000000" font-family="sans-serif" font-size="13" lengthAdjust="spacing" textLength="52.5776" x="95.6323" y="314.4575">bestand</text></g><path d="M20,334.5234 L84.4429,334.5234 L84.4429,341.6563 L74.4429,351.6563 L20,351.6563 L20,334.5234" fill="#EEEEEE" style="stroke:#000000;stroke-width:1.5;"/><rect fill="none" height="627.2656" style="stroke:#000000;stroke-width:1.5;" width="1288.3306" x="20" y="334.5234"/><text fill="#000000" font-family="sans-serif" font-size="13" font-weight="bold" lengthAdjust="spacing" textLength="19.4429" x="35" y="347.5903">alt</text><text fill="#000000" font-family="sans-serif" font-size="11" font-weight="bold" lengthAdjust="spacing" textLength="191.748" x="99.4429" y="346.7339">[eigener Bestand ausreichend]</text><g class="message" data-participant-1="Disponent" data-participant-2="Res"><polygon fill="#181818" points="1171.0825,368.7891,1181.0825,372.7891,1171.0825,376.7891,1175.0825,372.7891" style="stroke:#181818;stroke-width:1;"/><line style="stroke:#181818;stroke-width:1;" x1="78.6323" x2="1177.0825" y1="372.7891" y2="372.7891"/><text fill="#000000" font-family="sans-serif" font-size="13" lengthAdjust="spacing" textLength="357.9634" x="85.6323" y="367.7231">&#171;create&#187; ErsatzteilReservierung(lagerbestand, menge)</text></g><g class="message" data-participant-1="Res" data-participant-2="Res"><line style="stroke:#181818;stroke-width:1;" x1="1193.0825" x2="1235.0825" y1="401.9219" y2="401.9219"/><line style="stroke:#181818;stroke-width:1;" x1="1235.0825" x2="1235.0825" y1="401.9219" y2="414.9219"/><line style="stroke:#181818;stroke-width:1;" x1="1194.0825" x2="1235.0825" y1="414.9219" y2="414.9219"/><polygon fill="#181818" points="1204.0825,410.9219,1194.0825,414.9219,1204.0825,418.9219,1200.0825,414.9219" style="stroke:#181818;stroke-width:1;"/><text fill="#000000" font-family="sans-serif" font-size="13" lengthAdjust="spacing" textLength="76.248" x="1200.0825" y="396.856">reserviere()</text></g><g class="message" data-participant-1="Res" data-participant-2="LB"><polygon fill="#181818" points="815.6372,440.0547,805.6372,444.0547,815.6372,448.0547,811.6372,444.0547" style="stroke:#181818;stroke-width:1;"/><line style="stroke:#181818;stroke-width:1;" x1="809.6372" x2="1182.0825" y1="444.0547" y2="444.0547"/><text fill="#000000" font-family="sans-serif" font-size="13" lengthAdjust="spacing" textLength="145.0249" x="821.6372" y="438.9888">bucheAbgang(menge)</text></g><path d="M809,457.0547 L809,512.0547 L994,512.0547 L994,467.0547 L984,457.0547 L809,457.0547" fill="#FEFFDD" style="stroke:#181818;stroke-width:0.5;"/><path d="M984,457.0547 L984,467.0547 L994,467.0547 L984,457.0547" fill="#FEFFDD" style="stroke:#181818;stroke-width:0.5;"/><text fill="#000000" font-family="sans-serif" font-size="13" lengthAdjust="spacing" textLength="122.3384" x="815" y="474.1216">reserviert erhoeht,</text><text fill="#000000" font-family="sans-serif" font-size="13" lengthAdjust="spacing" textLength="164.8613" x="815" y="489.2544">physische Entnahme erst</text><text fill="#000000" font-family="sans-serif" font-size="13" lengthAdjust="spacing" textLength="133.8276" x="815" y="504.3872">bei Reparaturbeginn</text><g class="message" data-participant-1="Res" data-participant-2="Disponent"><polygon fill="#181818" points="89.6323,534.5859,79.6323,538.5859,89.6323,542.5859,85.6323,538.5859" style="stroke:#181818;stroke-width:1;"/><line style="stroke:#181818;stroke-width:1;stroke-dasharray:2,2;" x1="83.6323" x2="1187.0825" y1="538.5859" y2="538.5859"/><text fill="#000000" font-family="sans-serif" font-size="13" lengthAdjust="spacing" textLength="80.6597" x="95.6323" y="533.52">RESERVIERT</text></g><line style="stroke:#000000;stroke-width:1;stroke-dasharray:2,2;" x1="20" x2="1308.3306" y1="547.5859" y2="547.5859"/><text fill="#000000" font-family="sans-serif" font-size="11" font-weight="bold" lengthAdjust="spacing" textLength="226.7891" x="25" y="557.7964">[eigener Bestand nicht ausreichend]</text><path d="M30,568.3906 L106.624,568.3906 L106.624,575.5234 L96.624,585.5234 L30,585.5234 L30,568.3906" fill="#EEEEEE" style="stroke:#000000;stroke-width:1.5;"/><rect fill="none" height="133.6641" style="stroke:#000000;stroke-width:1.5;" width="1067.3115" x="30" y="568.3906"/><text fill="#000000" font-family="sans-serif" font-size="13" font-weight="bold" lengthAdjust="spacing" textLength="31.624" x="45" y="581.4575">loop</text><text fill="#000000" font-family="sans-serif" font-size="11" font-weight="bold" lengthAdjust="spacing" textLength="279.5386" x="121.624" y="580.6011">[fuer jede andere Filiale, bis Bedarf gedeckt]</text><g class="message" data-participant-1="Disponent" data-participant-2="F2"><polygon fill="#181818" points="1011.4404,602.6563,1021.4404,606.6563,1011.4404,610.6563,1015.4404,606.6563" style="stroke:#181818;stroke-width:1;"/><line style="stroke:#181818;stroke-width:1;" x1="78.6323" x2="1017.4404" y1="606.6563" y2="606.6563"/><text fill="#000000" font-family="sans-serif" font-size="13" lengthAdjust="spacing" textLength="166.1182" x="85.6323" y="601.5903">pruefeBestand(ersatzteil)</text></g><g class="message" data-participant-1="F2" data-participant-2="LB"><polygon fill="#181818" points="815.6372,631.7891,805.6372,635.7891,815.6372,639.7891,811.6372,635.7891" style="stroke:#181818;stroke-width:1;"/><line style="stroke:#181818;stroke-width:1;" x1="809.6372" x2="1022.4404" y1="635.7891" y2="635.7891"/><text fill="#000000" font-family="sans-serif" font-size="13" lengthAdjust="spacing" textLength="194.8032" x="821.6372" y="630.7231">pruefeVerfuegbarkeit(menge)</text></g><g class="message" data-participant-1="LB" data-participant-2="F2"><polygon fill="#181818" points="1011.4404,660.9219,1021.4404,664.9219,1011.4404,668.9219,1015.4404,664.9219" style="stroke:#181818;stroke-width:1;"/><line style="stroke:#181818;stroke-width:1;stroke-dasharray:2,2;" x1="804.6372" x2="1017.4404" y1="664.9219" y2="664.9219"/><text fill="#000000" font-family="sans-serif" font-size="13" lengthAdjust="spacing" textLength="71.665" x="811.6372" y="659.856">verfuegbar</text></g><g class="message" data-participant-1="F2" data-participant-2="Disponent"><polygon fill="#181818" points="89.6323,690.0547,79.6323,694.0547,89.6323,698.0547,85.6323,694.0547" style="stroke:#181818;stroke-width:1;"/><line style="stroke:#181818;stroke-width:1;stroke-dasharray:2,2;" x1="83.6323" x2="1027.4404" y1="694.0547" y2="694.0547"/><text fill="#000000" font-family="sans-serif" font-size="13" lengthAdjust="spacing" textLength="52.5776" x="95.6323" y="688.9888">bestand</text></g><path d="M30,716.0547 L94.4429,716.0547 L94.4429,723.1875 L84.4429,733.1875 L30,733.1875 L30,716.0547" fill="#EEEEEE" style="stroke:#000000;stroke-width:1.5;"/><rect fill="none" height="238.7344" style="stroke:#000000;stroke-width:1.5;" width="1268.3306" x="30" y="716.0547"/><text fill="#000000" font-family="sans-serif" font-size="13" font-weight="bold" lengthAdjust="spacing" textLength="19.4429" x="45" y="729.1216">alt</text><text fill="#000000" font-family="sans-serif" font-size="11" font-weight="bold" lengthAdjust="spacing" textLength="188.2515" x="109.4429" y="728.2651">[in anderer Filiale verfuegbar]</text><g class="message" data-participant-1="Disponent" data-participant-2="Res"><polygon fill="#181818" points="1171.0825,750.3203,1181.0825,754.3203,1171.0825,758.3203,1175.0825,754.3203" style="stroke:#181818;stroke-width:1;"/><line style="stroke:#181818;stroke-width:1;" x1="78.6323" x2="1177.0825" y1="754.3203" y2="754.3203"/><text fill="#000000" font-family="sans-serif" font-size="13" lengthAdjust="spacing" textLength="442.5776" x="85.6323" y="749.2544">&#171;create&#187; ErsatzteilReservierung(lagerbestandAndereFiliale, menge)</text></g><g class="message" data-participant-1="Res" data-participant-2="Res"><line style="stroke:#181818;stroke-width:1;" x1="1193.0825" x2="1235.0825" y1="783.4531" y2="783.4531"/><line style="stroke:#181818;stroke-width:1;" x1="1235.0825" x2="1235.0825" y1="783.4531" y2="796.4531"/><line style="stroke:#181818;stroke-width:1;" x1="1194.0825" x2="1235.0825" y1="796.4531" y2="796.4531"/><polygon fill="#181818" points="1204.0825,792.4531,1194.0825,796.4531,1204.0825,800.4531,1200.0825,796.4531" style="stroke:#181818;stroke-width:1;"/><text fill="#000000" font-family="sans-serif" font-size="13" lengthAdjust="spacing" textLength="76.248" x="1200.0825" y="778.3872">reserviere()</text></g><g class="message" data-participant-1="Res" data-participant-2="LB"><polygon fill="#181818" points="815.6372,821.5859,805.6372,825.5859,815.6372,829.5859,811.6372,825.5859" style="stroke:#181818;stroke-width:1;"/><line style="stroke:#181818;stroke-width:1;" x1="809.6372" x2="1182.0825" y1="825.5859" y2="825.5859"/><text fill="#000000" font-family="sans-serif" font-size="13" lengthAdjust="spacing" textLength="145.0249" x="821.6372" y="820.52">bucheAbgang(menge)</text></g><g class="message" data-participant-1="Res" data-participant-2="Disponent"><polygon fill="#181818" points="89.6323,850.7188,79.6323,854.7188,89.6323,858.7188,85.6323,854.7188" style="stroke:#181818;stroke-width:1;"/><line style="stroke:#181818;stroke-width:1;stroke-dasharray:2,2;" x1="83.6323" x2="1187.0825" y1="854.7188" y2="854.7188"/><text fill="#000000" font-family="sans-serif" font-size="13" lengthAdjust="spacing" textLength="175.0176" x="95.6323" y="849.6528">RESERVIERT (Umlagerung)</text></g><line style="stroke:#000000;stroke-width:1;stroke-dasharray:2,2;" x1="30" x2="1298.3306" y1="863.7188" y2="863.7188"/><text fill="#000000" font-family="sans-serif" font-size="11" font-weight="bold" lengthAdjust="spacing" textLength="137.2261" x="35" y="873.9292">[nirgends verfuegbar]</text><g class="message" data-participant-1="Disponent" data-participant-2="Disponent"><line style="stroke:#181818;stroke-width:1;" x1="78.6323" x2="120.6323" y1="898.6563" y2="898.6563"/><line style="stroke:#181818;stroke-width:1;" x1="120.6323" x2="120.6323" y1="898.6563" y2="911.6563"/><line style="stroke:#181818;stroke-width:1;" x1="79.6323" x2="120.6323" y1="911.6563" y2="911.6563"/><polygon fill="#181818" points="89.6323,907.6563,79.6323,911.6563,89.6323,915.6563,85.6323,911.6563" style="stroke:#181818;stroke-width:1;"/><text fill="#000000" font-family="sans-serif" font-size="13" lengthAdjust="spacing" textLength="122.5415" x="85.6323" y="893.5903">Fehlteil vormerken</text></g><path d="M83,924.6563 L83,949.6563 L324,949.6563 L324,934.6563 L314,924.6563 L83,924.6563" fill="#FEFFDD" style="stroke:#181818;stroke-width:0.5;"/><path d="M314,924.6563 L314,934.6563 L324,934.6563 L314,924.6563" fill="#FEFFDD" style="stroke:#181818;stroke-width:0.5;"/><text fill="#000000" font-family="sans-serif" font-size="13" lengthAdjust="spacing" textLength="220.3271" x="89" y="941.7231">-&gt; Lieferantenbestellung (sqd 03)</text><g class="message" data-participant-1="Disponent" data-participant-2="RA"><polygon fill="#181818" points="428.6196,992.9219,438.6196,996.9219,428.6196,1000.9219,432.6196,996.9219" style="stroke:#181818;stroke-width:1;"/><line style="stroke:#181818;stroke-width:1;" x1="78.6323" x2="434.6196" y1="996.9219" y2="996.9219"/><text fill="#000000" font-family="sans-serif" font-size="13" lengthAdjust="spacing" textLength="337.9873" x="85.6323" y="991.856">wechsleStatus(TEILE_BESTELLT) [nur bei Fehlteilen]</text></g><!--SRC=[fLN1Zjf03BtdAwmz1NMHklIsGaYW1cabJa3tqgsg2PXakc52FGvL-_NrX2HC4jYbQYI4cDZFpy_F36lE4EpFBJn2H5Rn7qQT3P-HTWKciQ9Nr0m7Ad271ZvuCK1eaOuQ2KsWDfmJVDRsa1iq71mKiTxeWp8CTu-mH3bGN90gTamgkGDbOJbjXw5EqA3mcEjCgmpBeFb35skX4gGOBIkpBKCMitQ8d0kdBiweYtFkP5atKfYA6TeWQ9g1uKIu2XxINhF8jPOSZ76hQ1SENElwg1XTFn8sbEXpgj3LbiVdMfDWYtv6aENv0NuWn6XoP9qmMezQ0FAqcCmV1FGqZzb9X12Ry44Pt-2BUEwtf4ZYOjOajgSRxj4aU4gLe65TvDX4DIYTtgefbA-zjgJiYKV6S1egGSKLL649zIR5AgtNdsWloEFnXb2m9fChSmeppmRtuBNGKi1DiZvqo4s1itd3GJUYL2ekXEGqJfJKwg2RN9199ob3lZj5Dt3ICQKvfdp_OWxfRwkjm41asAXqZ_BIyek9KPzN8iP46zFcqD5v6QsYvVDJj5mtORwBgXunizZJsuZMV57rqdWoO1BtRH6ghQbsvXvYRGN4UHmIURzvvIQpxydHkvxiJKOMqZyNY5izMZ-rLqTzh_geRtZsWfWUBLyiPsLjAf6eLkbQsVyszBIiqypYGlCN7NwRo__1wUyR4i8l-vAvj32u9ghFiNIfqIGstTgR1FGBpp7DoildcDCUnHgcbTVUJ3_HDQl5LYJ__cYSp9XbmXb2T_Tz_3JeZTrzkq__7lY5czHck69PNnkkewT5z7qMhTRHOh4Um5TJ4BWDhxcY-VON]--></g></svg>